<svg version="1.1" id="Layer_1" xmlns="http://www.w3.org/2000/svg" xmlns:xlink="http://www.w3.org/1999/xlink" x="0px" y="0px"
	 width="100%" viewBox="0 0 110 59" enable-background="new 0 0 110 59" xml:space="preserve">
<path fill="#000000" opacity="1.000000" stroke="none" 
	d="
M69.000000,1.000000 
	C82.980530,1.000000 96.961067,1.000000 110.970795,1.000000 
	C110.970795,20.619818 110.970795,40.239689 110.970795,59.929779 
	C74.431244,59.929779 37.862324,59.929779 1.146700,59.929779 
	C1.146700,40.334015 1.146700,20.667185 1.146700,1.000000 
	C15.770138,1.000000 30.416410,1.000000 45.805824,1.300815 
	C43.776642,3.428486 41.004314,5.255342 38.231987,7.082198 
	C40.078545,7.266161 41.492523,6.643341 42.907269,6.022272 
	C51.269039,2.351485 59.531322,2.149392 67.577492,6.879429 
	C68.277260,7.290792 68.600784,8.342168 68.757660,8.974778 
	C67.280884,8.617325 66.145531,8.381352 64.626999,8.080358 
	C59.673038,8.381887 60.909115,12.376809 59.595551,15.154095 
	C58.538158,17.279459 57.784481,19.219120 56.741299,20.963318 
	C55.668663,19.159082 54.885529,17.550310 54.071480,15.570984 
	C53.399284,13.442104 52.758007,11.683779 52.039764,9.584665 
	C50.628822,9.123646 49.294842,9.003414 47.566956,9.012899 
	C46.850479,16.272181 46.480652,23.400734 46.327789,30.533936 
	C46.319023,30.943214 48.079853,31.390415 49.328724,31.835800 
	C50.104122,31.270222 50.567902,30.688812 51.405289,30.074507 
	C52.524620,29.971802 53.270344,29.901993 54.236061,30.007595 
	C55.044548,31.068558 55.633049,31.954109 56.221550,32.839661 
	C56.522373,31.967268 56.843658,31.101269 57.118706,30.220823 
	C57.442879,29.183119 57.727020,28.132908 58.394920,27.051567 
	C60.154514,27.720968 61.547714,28.426926 62.783566,29.449703 
	C62.158382,30.152397 61.690544,30.538271 61.222710,30.924147 
	C61.669182,31.264858 62.090950,31.849380 62.567059,31.897619 
	C63.702366,32.012650 64.863327,31.874531 66.389572,31.902910 
	C67.525536,31.989115 68.285851,32.011063 68.865356,32.343117 
	C59.953812,37.976612 50.899689,38.364639 41.455555,34.203999 
	C41.947052,35.089535 42.477322,35.601650 43.082253,36.000546 
	C49.518887,40.244923 56.818913,39.287579 63.799316,38.847900 
	C71.641914,38.353912 81.433304,31.858379 82.899673,21.874430 
	C83.722282,16.273628 81.831505,9.052107 71.343376,3.673351 
	C70.363075,3.170611 69.771866,1.909173 69.000000,1.000000 
M49.751457,43.534737 
	C50.447651,41.080906 49.870575,39.770336 46.970131,39.968044 
	C44.288605,40.150826 41.289146,39.256428 38.957478,40.175446 
	C35.100777,41.695557 28.569210,36.187874 27.684427,44.116776 
	C25.876383,42.504276 24.106224,40.925568 22.336063,39.346859 
	C21.968681,39.664082 21.601299,39.981304 21.233917,40.298523 
	C21.233917,44.068413 21.233917,47.838299 21.233917,53.021091 
	C22.927221,51.225002 23.854706,50.241219 24.211206,49.863079 
	C25.558006,50.470325 26.935385,51.574799 28.366646,51.649700 
	C33.487995,51.917728 38.635143,52.014145 43.756447,51.796661 
	C45.684246,51.714794 48.102314,51.078804 49.271793,49.775558 
	C49.973667,48.993404 48.695202,46.434181 48.689522,44.294353 
	C48.816643,44.167458 48.943760,44.040558 49.751457,43.534737 
M83.332718,52.033993 
	C86.370110,51.845715 89.407501,51.657436 91.279228,51.541412 
	C93.241501,49.992931 94.688683,49.110119 95.791901,47.910889 
	C97.010414,46.586304 97.913673,44.971706 98.954247,43.483425 
	C97.583031,42.656776 96.236923,41.169220 94.836334,41.116035 
	C88.199295,40.864006 81.544060,40.894989 74.903748,41.099331 
	C73.647171,41.137993 72.428833,42.419044 70.924911,43.280281 
	C69.686584,40.410816 67.756485,39.235756 66.548973,42.580505 
	C63.198322,41.723450 60.431252,40.708332 57.594749,40.447056 
	C56.516571,40.347744 54.165466,42.446609 54.292549,42.750885 
	C55.184124,44.885586 56.571934,46.813023 57.643143,48.550583 
	C56.693798,48.423576 55.152676,48.217396 53.381874,47.980492 
	C55.914558,52.807541 57.414295,52.992867 63.203552,49.814785 
	C64.062439,50.590729 64.799271,51.256413 65.536102,51.922100 
	C66.633904,50.665825 67.731697,49.409550 68.544601,48.479294 
	C69.096130,49.399193 69.925728,50.782890 71.287163,53.053661 
	C72.784401,50.048954 73.736649,48.137955 74.827316,45.949162 
	C74.977936,48.064522 75.103943,49.834309 75.259811,52.023457 
	C77.808754,52.023457 80.112167,52.023457 83.332718,52.033993 
z"/>
<path fill="#0309D6" opacity="1.000000" stroke="none" 
	d="
M69.099075,9.096260 
	C68.600784,8.342168 68.277260,7.290792 67.577492,6.879429 
	C59.531322,2.149392 51.269039,2.351485 42.907269,6.022272 
	C41.492523,6.643341 40.078545,7.266161 38.231987,7.082198 
	C41.004314,5.255342 43.776642,3.428486 46.274483,1.300815 
	C53.354252,1.000000 60.708508,1.000000 68.531380,1.000000 
	C69.771866,1.909173 70.363075,3.170611 71.343376,3.673351 
	C81.831505,9.052107 83.722282,16.273628 82.899673,21.874430 
	C81.433304,31.858379 71.641914,38.353912 63.799316,38.847900 
	C56.818913,39.287579 49.518887,40.244923 43.082253,36.000546 
	C42.477322,35.601650 41.947052,35.089535 41.455555,34.203999 
	C50.899689,38.364639 59.953812,37.976612 68.842056,32.373207 
	C68.999588,32.093189 68.935875,32.049412 69.293106,31.995579 
	C70.690437,31.202679 71.955406,30.647760 72.735229,29.695536 
	C79.224449,21.771715 76.747200,11.423723 68.983376,9.008476 
	C69.041618,8.980478 69.099075,9.096260 69.099075,9.096260 
z"/>
<path fill="#727376" opacity="1.000000" stroke="none" 
	d="
M82.874146,52.028725 
	C80.112167,52.023457 77.808754,52.023457 75.259811,52.023457 
	C75.103943,49.834309 74.977936,48.064522 74.827316,45.949162 
	C73.736649,48.137955 72.784401,50.048954 71.287163,53.053661 
	C69.925728,50.782890 69.096130,49.399193 68.544601,48.479294 
	C67.731697,49.409550 66.633904,50.665825 65.536102,51.922096 
	C64.799271,51.256413 64.062439,50.590729 63.203552,49.814785 
	C57.414295,52.992867 55.914558,52.807541 53.381874,47.980492 
	C55.152676,48.217396 56.693798,48.423576 57.643143,48.550583 
	C56.571934,46.813023 55.184124,44.885586 54.292549,42.750885 
	C54.165466,42.446609 56.516571,40.347744 57.594749,40.447056 
	C60.431252,40.708332 63.198322,41.723450 66.548973,42.580505 
	C67.756485,39.235756 69.686584,40.410816 70.924911,43.280281 
	C72.428833,42.419044 73.647171,41.137993 74.903748,41.099331 
	C81.544060,40.894989 88.199295,40.864006 94.836334,41.116035 
	C96.236923,41.169220 97.583031,42.656776 98.954247,43.483425 
	C97.913673,44.971706 97.010414,46.586304 95.791901,47.910889 
	C94.688683,49.110119 93.241501,49.992931 91.279228,51.541412 
	C89.407501,51.657436 86.370110,51.845715 82.874146,52.028725 
z"/>
<path fill="#0308D5" opacity="1.000000" stroke="none" 
	d="
M48.306770,44.673630 
	C48.695202,46.434181 49.973667,48.993404 49.271793,49.775558 
	C48.102314,51.078804 45.684246,51.714794 43.756447,51.796661 
	C38.635143,52.014145 33.487995,51.917728 28.366646,51.649700 
	C26.935385,51.574799 25.558006,50.470325 24.211206,49.863079 
	C23.854706,50.241219 22.927221,51.225002 21.233917,53.021091 
	C21.233917,47.838299 21.233917,44.068413 21.233917,40.298523 
	C21.601299,39.981304 21.968681,39.664082 22.336063,39.346859 
	C24.106224,40.925568 25.876383,42.504276 27.684427,44.116776 
	C28.569210,36.187874 35.100777,41.695557 38.957478,40.175446 
	C41.289146,39.256428 44.288605,40.150826 46.970131,39.968044 
	C49.870575,39.770336 50.447651,41.080906 49.268555,43.455406 
	C48.054199,43.267914 47.322746,43.159752 45.759892,42.928650 
	C47.087421,43.838200 47.697098,44.255917 48.306770,44.673630 
z"/>
<path fill="#010DF0" opacity="1.000000" stroke="none" 
	d="
M65.010178,8.145381 
	C66.145531,8.381352 67.280884,8.617325 68.757660,8.974778 
	C69.099075,9.096260 69.041618,8.980478 69.026016,9.471608 
	C68.985565,17.324963 68.960716,24.687187 68.935875,32.049412 
	C68.935875,32.049412 68.999588,32.093189 69.022881,32.063099 
	C68.285851,32.011063 67.525536,31.989115 66.361794,31.488325 
	C65.642311,23.388115 65.326248,15.766748 65.010178,8.145381 
z"/>
<path fill="#0209E0" opacity="1.000000" stroke="none" 
	d="
M64.627007,8.080358 
	C65.326248,15.766748 65.642311,23.388115 65.986145,31.424068 
	C64.863327,31.874531 63.702366,32.012650 62.567059,31.897619 
	C62.090950,31.849380 61.669182,31.264858 61.222710,30.924147 
	C61.690544,30.538271 62.158382,30.152397 62.706558,29.070686 
	C62.697323,26.434307 62.885998,24.428677 62.450970,22.568945 
	C61.844948,19.978224 60.772240,17.496668 59.899273,14.968390 
	C60.909115,12.376809 59.673038,8.381887 64.627007,8.080358 
z"/>
<path fill="#090084" opacity="1.000000" stroke="none" 
	d="
M49.017105,31.819967 
	C48.079853,31.390415 46.319023,30.943214 46.327789,30.533936 
	C46.480652,23.400734 46.850479,16.272181 47.577324,9.458017 
	C48.326767,17.122269 48.671936,24.471119 49.017105,31.819967 
z"/>
<path fill="#08018F" opacity="1.000000" stroke="none" 
	d="
M49.328720,31.835800 
	C48.671936,24.471119 48.326767,17.122269 47.971230,9.328300 
	C49.294842,9.003414 50.628822,9.123646 51.843803,9.955421 
	C51.493763,17.147110 51.262726,23.627256 51.031685,30.107403 
	C50.567902,30.688812 50.104122,31.270222 49.328720,31.835800 
z"/>
<path fill="#0307CC" opacity="1.000000" stroke="none" 
	d="
M59.595551,15.154096 
	C60.772240,17.496668 61.844948,19.978224 62.450970,22.568945 
	C62.885998,24.428677 62.697323,26.434307 62.863907,28.753866 
	C61.547714,28.426926 60.154514,27.720968 58.261772,26.698442 
	C57.518417,24.640842 57.274612,22.899811 57.030807,21.158779 
	C57.784481,19.219120 58.538158,17.279459 59.595551,15.154096 
z"/>
<path fill="#0504AB" opacity="1.000000" stroke="none" 
	d="
M56.741302,20.963318 
	C57.274612,22.899811 57.518417,24.640842 57.895370,26.734997 
	C57.727020,28.132908 57.442879,29.183119 57.118706,30.220823 
	C56.843658,31.101269 56.522373,31.967268 56.221550,32.839661 
	C55.633049,31.954109 55.044548,31.068558 54.180870,29.605053 
	C53.971256,24.665245 54.036827,20.303391 54.102398,15.941537 
	C54.885529,17.550310 55.668663,19.159082 56.741302,20.963318 
z"/>
<path fill="#07039E" opacity="1.000000" stroke="none" 
	d="
M54.071480,15.570984 
	C54.036827,20.303391 53.971256,24.665245 53.960880,29.429642 
	C53.270344,29.901993 52.524620,29.971802 51.405289,30.074507 
	C51.262726,23.627256 51.493763,17.147110 51.920765,10.296208 
	C52.758007,11.683779 53.399284,13.442104 54.071480,15.570984 
z"/>
<path fill="#000000" opacity="1.000000" stroke="none" 
	d="
M69.293106,31.995579 
	C68.960716,24.687187 68.985565,17.324963 68.967773,9.499605 
	C76.747200,11.423723 79.224449,21.771715 72.735229,29.695536 
	C71.955406,30.647760 70.690437,31.202679 69.293106,31.995579 
z"/>
<path fill="#000000" opacity="1.000000" stroke="none" 
	d="
M48.498146,44.483994 
	C47.697098,44.255917 47.087421,43.838200 45.759892,42.928650 
	C47.322746,43.159752 48.054199,43.267914 48.928261,43.644867 
	C48.943760,44.040558 48.816643,44.167458 48.498146,44.483994 
z"/>
</svg>